<svg xmlns="http://www.w3.org/2000/svg" version="1.1" xmlns:xlink="http://www.w3.org/1999/xlink" viewBox="0 0 200 200"><rect width="200" height="200" fill="url('#gradient')"></rect><defs><linearGradient id="gradient" gradientTransform="rotate(45 0.5 0.5)"><stop offset="0%" stop-color="#304b63"></stop><stop offset="100%" stop-color="#261b1d"></stop></linearGradient></defs><g><g fill="#87ced8" transform="matrix(3.4629197427959038,0,0,3.4629197427959038,28.59447772265453,119.13009392574135)" stroke="#374f42" stroke-width="0.7"><path d="M4.95 0L1.65 0L1.65-8.28L0.12-8.28L0.12-10.57L1.65-10.57L1.65-11.41Q1.65-13.21 2.71-14.21Q3.78-15.21 5.70-15.21L5.70-15.21Q6.41-15.21 7.25-15L7.25-15L7.26-12.58Q6.95-12.67 6.45-12.67L6.45-12.67Q4.95-12.67 4.95-11.38L4.95-11.38L4.95-10.57L7.01-10.57L7.01-8.28L4.95-8.28L4.95 0ZM7.55-5.24L7.55-5.36Q7.55-6.96 8.08-8.19Q8.60-9.42 9.59-10.09Q10.58-10.76 11.88-10.76L11.88-10.76Q13.54-10.76 14.46-9.65L14.46-9.65L14.58-10.57L17.57-10.57L17.57-0.40Q17.57 1.00 16.92 2.03Q16.27 3.06 15.04 3.61Q13.81 4.16 12.19 4.16L12.19 4.16Q11.03 4.16 9.94 3.72Q8.85 3.28 8.27 2.58L8.27 2.58L9.65 0.64Q10.57 1.73 12.07 1.73L12.07 1.73Q14.26 1.73 14.26-0.52L14.26-0.52L14.26-0.85Q13.31 0.20 11.87 0.20L11.87 0.20Q9.93 0.20 8.74-1.28Q7.55-2.76 7.55-5.24L7.55-5.24ZM10.85-5.16L10.85-5.16Q10.85-3.86 11.34-3.10Q11.83-2.34 12.71-2.34L12.71-2.34Q13.77-2.34 14.26-3.06L14.26-3.06L14.26-7.50Q13.78-8.22 12.72-8.22L12.72-8.22Q11.85-8.22 11.35-7.44Q10.85-6.65 10.85-5.16ZM29.31-2.54L29.31 0L19.38 0L19.38-2.15L23.96-6.95Q25.64-8.88 25.64-10.01L25.64-10.01Q25.64-10.93 25.24-11.41Q24.84-11.88 24.08-11.88L24.08-11.88Q23.33-11.88 22.86-11.25Q22.39-10.61 22.39-9.65L22.39-9.65L19.09-9.65Q19.09-10.96 19.75-12.07Q20.40-13.17 21.56-13.80Q22.72-14.42 24.16-14.42L24.16-14.42Q26.46-14.42 27.71-13.36Q28.96-12.29 28.96-10.30L28.96-10.30Q28.96-9.46 28.64-8.67Q28.33-7.87 27.67-7.00Q27.01-6.12 25.55-4.66L25.55-4.66L23.71-2.54L29.31-2.54ZM38.42-14.42L38.92-14.42L38.92-11.84L38.77-11.84Q36.92-11.84 35.74-10.95Q34.55-10.07 34.28-8.50L34.28-8.50Q35.39-9.59 37.09-9.59L37.09-9.59Q38.94-9.59 40.03-8.24Q41.12-6.89 41.12-4.71L41.12-4.71Q41.12-3.35 40.48-2.22Q39.84-1.08 38.70-0.44Q37.55 0.20 36.15 0.20L36.15 0.20Q34.64 0.20 33.45-0.49Q32.26-1.18 31.59-2.46Q30.93-3.74 30.91-5.41L30.91-5.41L30.91-6.73Q30.91-8.93 31.85-10.68Q32.79-12.43 34.54-13.43Q36.29-14.42 38.42-14.42L38.42-14.42ZM35.95-7.07L35.95-7.07Q35.29-7.07 34.85-6.77Q34.41-6.46 34.20-6.03L34.20-6.03L34.20-5.04Q34.20-2.34 36.06-2.34L36.06-2.34Q36.82-2.34 37.32-3.02Q37.82-3.69 37.82-4.71L37.82-4.71Q37.82-5.75 37.31-6.41Q36.80-7.07 35.95-7.07Z"></path></g></g></svg>